# Blender v2.77 (sub 0) OBJ File: 'drum.blend'
# www.blender.org
o Cylinder.003
v -2.653110 3.231028 1.747001
v -2.653110 4.331028 1.747001
v -2.379984 3.231028 1.773901
v -2.379984 4.331028 1.773901
v -2.117353 3.231028 1.853570
v -2.117353 4.331028 1.853570
v -1.875312 3.231028 1.982943
v -1.875312 4.331028 1.982943
v -1.663161 3.231028 2.157051
v -1.663161 4.331028 2.157051
v -1.489053 3.231028 2.369203
v -1.489053 4.331028 2.369203
v -1.359679 3.231028 2.611244
v -1.359679 4.331028 2.611244
v -1.280011 3.231028 2.873874
v -1.280011 4.331028 2.873874
v -1.253110 3.231028 3.147001
v -1.253110 4.331028 3.147001
v -1.280011 3.231028 3.420127
v -1.280011 4.331028 3.420127
v -1.359679 3.231028 3.682757
v -1.359679 4.331028 3.682757
v -1.489053 3.231028 3.924799
v -1.489053 4.331028 3.924799
v -1.663161 3.231028 4.136950
v -1.663161 4.331028 4.136950
v -1.875312 3.231028 4.311058
v -1.875312 4.331028 4.311058
v -2.117353 3.231028 4.440432
v -2.117353 4.331028 4.440432
v -2.379984 3.231028 4.520100
v -2.379984 4.331028 4.520100
v -2.653111 3.231028 4.547001
v -2.653111 4.331028 4.547001
v -2.926237 3.231028 4.520100
v -2.926237 4.331028 4.520100
v -3.188868 3.231028 4.440432
v -3.188868 4.331028 4.440432
v -3.430909 3.231028 4.311058
v -3.430909 4.331028 4.311058
v -3.643060 3.231028 4.136950
v -3.643060 4.331028 4.136950
v -3.817168 3.231028 3.924798
v -3.817168 4.331028 3.924798
v -3.946542 3.231028 3.682756
v -3.946542 4.331028 3.682756
v -4.026210 3.231028 3.420126
v -4.026210 4.331028 3.420126
v -4.053110 3.231028 3.146999
v -4.053110 4.331028 3.146999
v -4.026209 3.231028 2.873873
v -4.026209 4.331028 2.873873
v -3.946541 3.231028 2.611243
v -3.946541 4.331028 2.611243
v -3.817167 3.231028 2.369201
v -3.817167 4.331028 2.369201
v -3.643058 3.231028 2.157050
v -3.643058 4.331028 2.157050
v -3.430907 3.231028 1.982942
v -3.430907 4.331028 1.982942
v -3.188865 3.231028 1.853569
v -3.188865 4.331028 1.853569
v -2.926234 3.231028 1.773901
v -2.926234 4.331028 1.773901
vn 0.0980 0.0000 -0.9952
vn 0.2903 0.0000 -0.9569
vn 0.4714 0.0000 -0.8819
vn 0.6344 0.0000 -0.7730
vn 0.7730 0.0000 -0.6344
vn 0.8819 0.0000 -0.4714
vn 0.9569 0.0000 -0.2903
vn 0.9952 0.0000 -0.0980
vn 0.9952 0.0000 0.0980
vn 0.9569 0.0000 0.2903
vn 0.8819 0.0000 0.4714
vn 0.7730 0.0000 0.6344
vn 0.6344 0.0000 0.7730
vn 0.4714 0.0000 0.8819
vn 0.2903 0.0000 0.9569
vn 0.0980 0.0000 0.9952
vn -0.0980 0.0000 0.9952
vn -0.2903 0.0000 0.9569
vn -0.4714 0.0000 0.8819
vn -0.6344 0.0000 0.7730
vn -0.7730 0.0000 0.6344
vn -0.8819 0.0000 0.4714
vn -0.9569 0.0000 0.2903
vn -0.9952 0.0000 0.0980
vn -0.9952 0.0000 -0.0980
vn -0.9569 0.0000 -0.2903
vn -0.8819 0.0000 -0.4714
vn -0.7730 0.0000 -0.6344
vn -0.6344 0.0000 -0.7730
vn -0.4714 0.0000 -0.8819
vn 0.0000 1.0000 -0.0000
vn -0.2903 0.0000 -0.9569
vn -0.0980 0.0000 -0.9952
vn 0.0000 -1.0000 -0.0000
s off
f 2//1 3//1 1//1
f 4//2 5//2 3//2
f 6//3 7//3 5//3
f 8//4 9//4 7//4
f 10//5 11//5 9//5
f 12//6 13//6 11//6
f 14//7 15//7 13//7
f 16//8 17//8 15//8
f 18//9 19//9 17//9
f 20//10 21//10 19//10
f 22//11 23//11 21//11
f 24//12 25//12 23//12
f 26//13 27//13 25//13
f 28//14 29//14 27//14
f 30//15 31//15 29//15
f 32//16 33//16 31//16
f 34//17 35//17 33//17
f 36//18 37//18 35//18
f 38//19 39//19 37//19
f 40//20 41//20 39//20
f 42//21 43//21 41//21
f 44//22 45//22 43//22
f 46//23 47//23 45//23
f 48//24 49//24 47//24
f 50//25 51//25 49//25
f 52//26 53//26 51//26
f 54//27 55//27 53//27
f 56//28 57//28 55//28
f 58//29 59//29 57//29
f 60//30 61//30 59//30
f 38//31 14//31 6//31
f 62//32 63//32 61//32
f 64//33 1//33 63//33
f 31//34 51//34 63//34
f 2//1 4//1 3//1
f 4//2 6//2 5//2
f 6//3 8//3 7//3
f 8//4 10//4 9//4
f 10//5 12//5 11//5
f 12//6 14//6 13//6
f 14//7 16//7 15//7
f 16//8 18//8 17//8
f 18//9 20//9 19//9
f 20//10 22//10 21//10
f 22//11 24//11 23//11
f 24//12 26//12 25//12
f 26//13 28//13 27//13
f 28//14 30//14 29//14
f 30//15 32//15 31//15
f 32//16 34//16 33//16
f 34//17 36//17 35//17
f 36//18 38//18 37//18
f 38//19 40//19 39//19
f 40//20 42//20 41//20
f 42//21 44//21 43//21
f 44//22 46//22 45//22
f 46//23 48//23 47//23
f 48//24 50//24 49//24
f 50//25 52//25 51//25
f 52//26 54//26 53//26
f 54//27 56//27 55//27
f 56//28 58//28 57//28
f 58//29 60//29 59//29
f 60//30 62//30 61//30
f 6//31 4//31 62//31
f 2//31 64//31 62//31
f 62//31 60//31 58//31
f 58//31 56//31 54//31
f 54//31 52//31 46//31
f 50//31 48//31 46//31
f 46//31 44//31 42//31
f 42//31 40//31 38//31
f 38//31 36//31 34//31
f 34//31 32//31 38//31
f 30//31 28//31 22//31
f 26//31 24//31 22//31
f 22//31 20//31 18//31
f 18//31 16//31 22//31
f 14//31 12//31 10//31
f 10//31 8//31 6//31
f 4//31 2//31 62//31
f 62//31 58//31 6//31
f 52//31 50//31 46//31
f 46//31 42//31 38//31
f 38//31 32//31 30//31
f 28//31 26//31 22//31
f 22//31 16//31 14//31
f 14//31 10//31 6//31
f 6//31 58//31 54//31
f 54//31 46//31 6//31
f 38//31 30//31 22//31
f 22//31 14//31 38//31
f 6//31 46//31 38//31
f 62//32 64//32 63//32
f 64//33 2//33 1//33
f 63//34 1//34 3//34
f 3//34 5//34 7//34
f 7//34 9//34 15//34
f 11//34 13//34 15//34
f 15//34 17//34 19//34
f 19//34 21//34 15//34
f 23//34 25//34 27//34
f 27//34 29//34 31//34
f 31//34 33//34 35//34
f 35//34 37//34 31//34
f 39//34 41//34 43//34
f 43//34 45//34 47//34
f 47//34 49//34 51//34
f 51//34 53//34 55//34
f 55//34 57//34 63//34
f 59//34 61//34 63//34
f 63//34 3//34 7//34
f 9//34 11//34 15//34
f 15//34 21//34 23//34
f 23//34 27//34 15//34
f 31//34 37//34 43//34
f 39//34 43//34 37//34
f 47//34 51//34 43//34
f 57//34 59//34 63//34
f 63//34 7//34 15//34
f 15//34 27//34 31//34
f 31//34 43//34 51//34
f 51//34 55//34 63//34
f 63//34 15//34 31//34
